# xmcd
#
# Track frame offsets:
#	150
#	23523
#	46158
#	65591
#	85552
#	105945
#	124279
#	142946
#	161952
#	176155
#	193878
#	216527
#	235431
#	252387
#	270413
#
# Disc length: 3897 seconds
#
# Revision: 131061
# Processed by: cddbd v1.5.2PL0 Copyright (c) Steve Scherf et al.
# Submitted via: EZCDAudioConverter 8.0.6.1
#
DISCID=d60f370f
DTITLE=Brad Paisley - This Is Country Music
DYEAR=2011
DGENRE=Country
TTITLE0=Brad Paisley - This Is Country Music
TTITLE1=Brad Paisley Feat. Alabama - Old Alabama
TTITLE2=Brad Paisley - A Man Don't Have To Die
TTITLE3=Brad Paisley - Camouflage
TTITLE4=Brad Paisley and Carrie Underwood - Remind Me
TTITLE5=Brad Paisley - Working On A Tan
TTITLE6=Brad Paisley Feat. Don Henley - Love Her Like She's Leavin'
TTITLE7=Brad Paisley - One Of Those Lives
TTITLE8=Brad Paisley - Toothbrush
TTITLE9=Brad Paisley - Be The Lake
TTITLE10=Brad Paisley Feat. Clint Eastwood - Eastwood
TTITLE11=Brad Paisley - New Favorite Memory
TTITLE12=Brad Paisley Feat. Blake Shelton - Don't Drink The Water
TTITLE13=Brad Paisley - I Do Now
TTITLE14=Brad Paisley Feat. Marty Stuart, Sheryl Crow and Carl Jackson - Life's 
TTITLE14=Railway To Heaven
EXTD=
EXTT0=
EXTT1=
EXTT2=
EXTT3=
EXTT4=
EXTT5=
EXTT6=
EXTT7=
EXTT8=
EXTT9=
EXTT10=
EXTT11=
EXTT12=
EXTT13=
EXTT14=
PLAYORDER=
